<?xml version="1.0" encoding="UTF-8"?>
<svg xmlns="http://www.w3.org/2000/svg" viewBox="0 0 680 700" width="680" height="700" role="img">
<title>SpotMyShot カメラマン4コマ漫画（日本語）</title>
<desc>大会で撮影→プレイヤーへの共有が難しい(容量・検索・有料配布)→SpotMyShotなら共有も検索も手軽に→販売で収益化・格安で購入、みんなが得するシステム、という4コマ。</desc>
<style>
.cap{font-family:"Hiragino Sans","Yu Gothic",Meiryo,sans-serif;font-size:15px;font-weight:600;fill:#1f2937}
.cap2{font-family:"Hiragino Sans","Yu Gothic",Meiryo,sans-serif;font-size:13px;font-weight:400;fill:#455a64}
.lbl{font-family:"Hiragino Sans","Yu Gothic",Meiryo,sans-serif;font-size:14px;font-weight:600;fill:#37474f}
.capg2{font-family:"Hiragino Sans","Yu Gothic",Meiryo,sans-serif;font-size:15px;font-weight:600;fill:#2e7d32}
.num{font-family:"Hiragino Sans","Yu Gothic",Meiryo,sans-serif;font-size:14px;font-weight:600;fill:#ffffff}
.brand{font-family:"Hiragino Sans","Yu Gothic",Meiryo,sans-serif;font-size:14px;font-weight:600;fill:#ffffff}
.buy{font-family:"Hiragino Sans","Yu Gothic",Meiryo,sans-serif;font-size:13px;font-weight:600;fill:#ffffff}
.yen{font-family:"Hiragino Sans","Yu Gothic",Meiryo,sans-serif;font-size:15px;font-weight:600;fill:#7b5e00}
.q{font-family:"Hiragino Sans","Yu Gothic",Meiryo,sans-serif;font-size:22px;font-weight:600;fill:#ef6c00}
.lk{stroke:#37474f;stroke-width:4;stroke-linecap:round;fill:none}
.lo{stroke:#fb8c00;stroke-width:5;stroke-linecap:round;fill:none}
</style>
<rect x="0" y="0" width="680" height="700" fill="#ffffff"/>
<g transform="translate(10,10)">
<rect x="0" y="0" width="320" height="320" rx="12" fill="#dbeefb"/>
<circle cx="278" cy="46" r="22" fill="#ffd54f"/>
<line x1="14" y1="252" x2="306" y2="252" stroke="#9bbfd6" stroke-width="2"/>
<circle cx="225" cy="150" r="13" fill="#fb8c00"/>
<path d="M225 163 L231 196" class="lo"/><path d="M231 196 L214 234" class="lo"/><path d="M231 196 L253 230" class="lo"/>
<path d="M227 173 L205 185" class="lo"/><path d="M227 173 L249 162" class="lo"/>
<line x1="176" y1="150" x2="202" y2="150" stroke="#fdb24d" stroke-width="3"/>
<line x1="172" y1="166" x2="196" y2="166" stroke="#fdb24d" stroke-width="3"/>
<rect x="52" y="180" width="32" height="58" rx="8" fill="#1976d2"/>
<line x1="60" y1="238" x2="60" y2="250" class="lk"/><line x1="76" y1="238" x2="76" y2="250" class="lk"/>
<circle cx="68" cy="165" r="15" fill="#ffd9b3"/>
<path d="M54 161 a14 12 0 0 1 28 0" fill="#5d4037"/>
<rect x="80" y="156" width="36" height="26" rx="4" fill="#37474f"/>
<rect x="86" y="150" width="13" height="7" rx="2" fill="#546e7a"/>
<circle cx="99" cy="170" r="9" fill="#263238"/><circle cx="99" cy="170" r="4.5" fill="#78909c"/>
<line x1="56" y1="190" x2="82" y2="170" class="lk"/>
<path d="M124 156 l11 -4 M126 168 l12 0 M124 180 l11 4" stroke="#ffca28" stroke-width="2.5" fill="none" stroke-linecap="round"/>
<rect x="14" y="283" width="292" height="28" rx="8" fill="#ffffff" opacity="0.92"/>
<text x="160" y="302" text-anchor="middle" class="cap">大会でたくさん撮影！</text>
<circle cx="26" cy="26" r="14" fill="#1565c0"/><text x="26" y="31" text-anchor="middle" class="num">1</text>
</g>
<g transform="translate(350,10)">
<rect x="0" y="0" width="320" height="320" rx="12" fill="#eef1f4"/>
<rect x="34" y="158" width="30" height="52" rx="8" fill="#1976d2"/>
<line x1="42" y1="210" x2="42" y2="221" class="lk"/><line x1="58" y1="210" x2="58" y2="221" class="lk"/>
<circle cx="49" cy="143" r="14" fill="#ffd9b3"/>
<path d="M36 139 a13 11 0 0 1 26 0" fill="#5d4037"/>
<circle cx="44" cy="145" r="1.6" fill="#37474f"/><circle cx="54" cy="145" r="1.6" fill="#37474f"/>
<line x1="45" y1="153" x2="53" y2="153" stroke="#37474f" stroke-width="1.6"/>
<line x1="36" y1="166" x2="26" y2="150" class="lk"/><line x1="64" y1="166" x2="74" y2="152" class="lk"/>
<text x="78" y="138" class="q">？</text>
<rect x="118" y="60" width="188" height="42" rx="8" fill="#ffffff" stroke="#e6b8b0" stroke-width="1.5"/>
<circle cx="141" cy="81" r="11" fill="#ef5350"/><path d="M137 77 L145 85 M145 77 L137 85" stroke="#fff" stroke-width="2.5" stroke-linecap="round"/>
<text x="160" y="86" class="lbl">ストレージ容量</text>
<rect x="118" y="116" width="188" height="42" rx="8" fill="#ffffff" stroke="#e6b8b0" stroke-width="1.5"/>
<circle cx="141" cy="137" r="11" fill="#ef5350"/><path d="M137 133 L145 141 M145 133 L137 141" stroke="#fff" stroke-width="2.5" stroke-linecap="round"/>
<text x="160" y="142" class="lbl">画像検索</text>
<rect x="118" y="172" width="188" height="42" rx="8" fill="#ffffff" stroke="#e6b8b0" stroke-width="1.5"/>
<circle cx="141" cy="193" r="11" fill="#ef5350"/><path d="M137 189 L145 197 M145 189 L137 197" stroke="#fff" stroke-width="2.5" stroke-linecap="round"/>
<text x="160" y="198" class="lbl">有料配布</text>
<rect x="14" y="283" width="292" height="28" rx="8" fill="#ffffff" opacity="0.92"/>
<text x="160" y="302" text-anchor="middle" class="cap">写真を渡す方法が難しい…</text>
<circle cx="26" cy="26" r="14" fill="#1565c0"/><text x="26" y="31" text-anchor="middle" class="num">2</text>
</g>
<g transform="translate(10,350)">
<rect x="0" y="0" width="320" height="320" rx="12" fill="#f4f8fb"/>
<rect x="56" y="60" width="208" height="34" rx="8" fill="#1565c0"/>
<text x="160" y="82" text-anchor="middle" class="brand">SpotMyShot</text>
<circle cx="80" cy="130" r="13" fill="#43a047"/><path d="M75 130 L79 134 L86 125" stroke="#fff" stroke-width="3" fill="none" stroke-linecap="round" stroke-linejoin="round"/>
<text x="102" y="135" class="cap">かんたん共有</text>
<circle cx="80" cy="172" r="13" fill="#43a047"/><path d="M75 172 L79 176 L86 167" stroke="#fff" stroke-width="3" fill="none" stroke-linecap="round" stroke-linejoin="round"/>
<text x="102" y="177" class="cap">顔・ゼッケンで検索</text>
<circle cx="80" cy="214" r="13" fill="#43a047"/><path d="M75 214 L79 218 L86 209" stroke="#fff" stroke-width="3" fill="none" stroke-linecap="round" stroke-linejoin="round"/>
<text x="102" y="219" class="cap">販売もできる</text>
<rect x="14" y="283" width="292" height="28" rx="8" fill="#ffffff" opacity="0.92"/>
<text x="160" y="302" text-anchor="middle" class="cap">SpotMyShotなら共有も検索も手軽に</text>
<circle cx="26" cy="26" r="14" fill="#1565c0"/><text x="26" y="31" text-anchor="middle" class="num">3</text>
</g>
<g transform="translate(350,350)">
<rect x="0" y="0" width="320" height="320" rx="12" fill="#eef7ef"/>
<rect x="95" y="42" width="130" height="28" rx="8" fill="#1565c0"/>
<text x="160" y="61" text-anchor="middle" class="brand">SpotMyShot</text>
<text x="160" y="92" text-anchor="middle" class="capg2">みんなが得するシステム</text>
<circle cx="58" cy="148" r="14" fill="#ffd54f" stroke="#f9a825" stroke-width="2"/><text x="58" y="154" text-anchor="middle" class="yen">¥</text>
<rect x="44" y="198" width="28" height="46" rx="8" fill="#1976d2"/>
<line x1="51" y1="244" x2="51" y2="255" class="lk"/><line x1="65" y1="244" x2="65" y2="255" class="lk"/>
<circle cx="58" cy="184" r="13" fill="#ffd9b3"/><path d="M46 180 a12 10 0 0 1 24 0" fill="#5d4037"/>
<circle cx="53" cy="184" r="1.5" fill="#37474f"/><circle cx="63" cy="184" r="1.5" fill="#37474f"/><path d="M53 189 q5 5 10 0" stroke="#37474f" stroke-width="1.6" fill="none"/>
<line x1="46" y1="205" x2="35" y2="190" class="lk"/><line x1="70" y1="205" x2="81" y2="190" class="lk"/>
<line x1="106" y1="172" x2="206" y2="172" stroke="#9e9e9e" stroke-width="2"/>
<path d="M116 165 L106 172 L116 179" fill="none" stroke="#9e9e9e" stroke-width="2" stroke-linecap="round"/>
<path d="M196 165 L206 172 L196 179" fill="none" stroke="#9e9e9e" stroke-width="2" stroke-linecap="round"/>
<rect x="132" y="150" width="34" height="26" rx="3" fill="#ffffff" stroke="#90a4ae" stroke-width="1.5"/><circle cx="143" cy="160" r="4" fill="#ffd54f"/>
<circle cx="183" cy="163" r="11" fill="#ffd54f" stroke="#f9a825" stroke-width="2"/><text x="183" y="168" text-anchor="middle" class="yen">¥</text>
<rect x="230" y="158" width="52" height="22" rx="6" fill="#f57c00"/><text x="256" y="173" text-anchor="middle" class="buy">格安！</text>
<rect x="248" y="198" width="28" height="46" rx="8" fill="#fb8c00"/>
<line x1="255" y1="244" x2="255" y2="255" class="lk"/><line x1="269" y1="244" x2="269" y2="255" class="lk"/>
<circle cx="262" cy="184" r="13" fill="#ffd9b3"/><path d="M250 180 a12 10 0 0 1 24 0" fill="#5d4037"/>
<circle cx="257" cy="184" r="1.5" fill="#37474f"/><circle cx="267" cy="184" r="1.5" fill="#37474f"/><path d="M257 189 q5 5 10 0" stroke="#37474f" stroke-width="1.6" fill="none"/>
<line x1="250" y1="205" x2="239" y2="190" class="lk"/><line x1="274" y1="205" x2="285" y2="190" class="lk"/>
<rect x="14" y="283" width="292" height="28" rx="8" fill="#ffffff" opacity="0.92"/>
<text x="160" y="302" text-anchor="middle" class="cap">みんな得！販売で収益化・格安で購入</text>
<circle cx="26" cy="26" r="14" fill="#1565c0"/><text x="26" y="31" text-anchor="middle" class="num">4</text>
</g>
</svg>
